G04 Layer: TopSilkLayer*
G04 EasyEDA v6.1.49, Fri, 31 May 2019 20:59:05 GMT*
G04 40a2506dbd6d4ce6bee7739c3bacdc10,9b1a5d735843498e81bf2f4db3a13241,10*
G04 Gerber Generator version 0.2*
G04 Scale: 100 percent, Rotated: No, Reflected: No *
G04 Dimensions in millimeters *
G04 leading zeros omitted , absolute positions ,3 integer and 3 decimal *
%FSLAX33Y33*%
%MOMM*%
G90*
G71D02*

%ADD10C,0.254000*%
%ADD23C,0.200660*%
%ADD24C,0.203200*%
%ADD25C,0.202999*%
%ADD26C,0.152400*%

%LPD*%
G54D10*
G01X11938Y5461D02*
G01X6858Y5461D01*
G01X6858Y5461D02*
G01X6858Y6223D01*
G01X6858Y6223D02*
G01X6858Y6985D01*
G01X6858Y6985D02*
G01X11938Y6985D01*
G01X11938Y6985D02*
G01X11938Y6223D01*
G01X11938Y6223D02*
G01X11938Y5461D01*
G01X6858Y6223D02*
G01X6604Y6223D01*
G01X11938Y6223D02*
G01X12192Y6223D01*
G01X9779Y18415D02*
G01X4699Y18415D01*
G01X4699Y18415D02*
G01X4699Y19177D01*
G01X4699Y19177D02*
G01X4699Y19939D01*
G01X4699Y19939D02*
G01X9779Y19939D01*
G01X9779Y19939D02*
G01X9779Y19177D01*
G01X9779Y19177D02*
G01X9779Y18415D01*
G01X4699Y19177D02*
G01X4445Y19177D01*
G01X9779Y19177D02*
G01X10033Y19177D01*
G54D23*
G01X9395Y12062D02*
G01X4315Y12062D01*
G01X4315Y9522D01*
G01X9395Y9522D01*
G01X9395Y12062D01*
G54D24*
G01X32893Y19812D02*
G01X32893Y21717D01*
G01X30353Y21717D01*
G01X30353Y14097D01*
G01X32893Y14097D01*
G54D25*
G01X32893Y14097D02*
G01X32893Y19812D01*
G54D10*
G01X15367Y1524D02*
G01X15367Y33020D01*
G01X28575Y33020D01*
G01X28575Y1524D01*
G01X15367Y1524D01*
G01X18796Y29972D02*
G01X18161Y30607D01*
G01X18161Y31877D01*
G01X18796Y32512D01*
G01X20066Y32512D01*
G01X20701Y31877D01*
G01X21336Y32512D01*
G01X22606Y32512D01*
G01X23241Y31877D01*
G01X23876Y32512D01*
G01X25146Y32512D01*
G01X25781Y31877D01*
G01X25781Y30607D01*
G01X25146Y29972D01*
G01X23876Y29972D01*
G01X23241Y30607D01*
G01X22606Y29972D01*
G01X21336Y29972D01*
G01X20701Y30607D01*
G01X20066Y29972D01*
G01X18796Y29972D01*
G01X16891Y2667D02*
G01X16891Y9017D01*
G01X16891Y10287D01*
G01X21971Y10287D01*
G01X27051Y10287D01*
G01X27051Y9017D01*
G01X27051Y2667D01*
G01X21971Y2667D01*
G01X16891Y2667D01*
G01X21971Y10287D02*
G01X21971Y2667D01*
G01X16891Y9017D02*
G01X27051Y9017D01*
G01X18796Y6477D02*
G01X20066Y5207D01*
G01X23876Y6477D02*
G01X25146Y5207D01*
G01X12623Y30124D02*
G01X12623Y32105D01*
G01X2616Y29616D02*
G01X2616Y32613D01*
G01X2616Y33324D02*
G01X4419Y33324D01*
G01X4419Y33909D01*
G01X2616Y33909D01*
G01X2616Y33324D01*
G01X2616Y28905D01*
G01X12623Y28905D01*
G01X12623Y33324D01*
G01X10820Y33324D01*
G01X10820Y33909D01*
G01X12623Y33909D01*
G01X12623Y33324D01*
G01X10820Y33324D02*
G01X4419Y33324D01*
G01X16761Y3949D02*
G01X27061Y3949D01*
G01X16761Y10251D02*
G01X27051Y10251D01*
G01X27044Y3934D02*
G01X27044Y10195D01*
G01X27048Y10185D01*
G01X16761Y4050D02*
G01X16761Y10249D01*
G54D26*
G01X9398Y5082D02*
G01X9398Y3992D01*
G01X9398Y5082D02*
G01X9865Y5082D01*
G01X10020Y5031D01*
G01X10073Y4980D01*
G01X10124Y4876D01*
G01X10124Y4772D01*
G01X10073Y4668D01*
G01X10020Y4615D01*
G01X9865Y4564D01*
G01X9398Y4564D01*
G01X9761Y4564D02*
G01X10124Y3992D01*
G01X10467Y4876D02*
G01X10571Y4927D01*
G01X10728Y5082D01*
G01X10728Y3992D01*
G01X7239Y18036D02*
G01X7239Y16946D01*
G01X7239Y18036D02*
G01X7706Y18036D01*
G01X7861Y17985D01*
G01X7914Y17934D01*
G01X7965Y17830D01*
G01X7965Y17726D01*
G01X7914Y17622D01*
G01X7861Y17569D01*
G01X7706Y17518D01*
G01X7239Y17518D01*
G01X7602Y17518D02*
G01X7965Y16946D01*
G01X8361Y17777D02*
G01X8361Y17830D01*
G01X8412Y17934D01*
G01X8465Y17985D01*
G01X8569Y18036D01*
G01X8775Y18036D01*
G01X8879Y17985D01*
G01X8933Y17934D01*
G01X8983Y17830D01*
G01X8983Y17726D01*
G01X8933Y17622D01*
G01X8829Y17465D01*
G01X8308Y16946D01*
G01X9037Y16946D01*
G01X7409Y13147D02*
G01X7355Y13251D01*
G01X7251Y13355D01*
G01X7150Y13406D01*
G01X6941Y13406D01*
G01X6837Y13355D01*
G01X6733Y13251D01*
G01X6680Y13147D01*
G01X6629Y12992D01*
G01X6629Y12733D01*
G01X6680Y12575D01*
G01X6733Y12471D01*
G01X6837Y12367D01*
G01X6941Y12316D01*
G01X7150Y12316D01*
G01X7251Y12367D01*
G01X7355Y12471D01*
G01X7409Y12575D01*
G01X7752Y13200D02*
G01X7856Y13251D01*
G01X8011Y13406D01*
G01X8011Y12316D01*
G01X32992Y17907D02*
G01X34081Y18323D01*
G01X32992Y18737D02*
G01X34081Y18323D01*
G01X32992Y19080D02*
G01X34081Y19080D01*
G01X32992Y19080D02*
G01X32992Y19547D01*
G01X33042Y19705D01*
G01X33093Y19756D01*
G01X33197Y19809D01*
G01X33355Y19809D01*
G01X33459Y19756D01*
G01X33510Y19705D01*
G01X33563Y19547D01*
G01X33563Y19080D01*
G01X32992Y20566D02*
G01X34081Y20152D01*
G01X32992Y20566D02*
G01X34081Y20982D01*
G01X33718Y20307D02*
G01X33718Y20828D01*
G01X32992Y21325D02*
G01X34081Y21325D01*
G01X32992Y21668D02*
G01X34081Y21668D01*
G01X32992Y21668D02*
G01X34081Y22395D01*
G01X32992Y22395D02*
G01X34081Y22395D01*
G01X32992Y22738D02*
G01X34081Y22738D01*
G01X32992Y22738D02*
G01X32992Y23413D01*
G01X33510Y22738D02*
G01X33510Y23154D01*
G01X34081Y22738D02*
G01X34081Y23413D01*
G01X32992Y23756D02*
G01X34081Y23756D01*
G01X34081Y23756D02*
G01X34081Y24381D01*
G01X14282Y18051D02*
G01X14178Y17998D01*
G01X14074Y17894D01*
G01X14023Y17792D01*
G01X14023Y17584D01*
G01X14074Y17480D01*
G01X14178Y17376D01*
G01X14282Y17322D01*
G01X14437Y17272D01*
G01X14696Y17272D01*
G01X14853Y17322D01*
G01X14958Y17376D01*
G01X15062Y17480D01*
G01X15113Y17584D01*
G01X15113Y17792D01*
G01X15062Y17894D01*
G01X14958Y17998D01*
G01X14853Y18051D01*
G01X14178Y19121D02*
G01X14074Y19016D01*
G01X14023Y18862D01*
G01X14023Y18653D01*
G01X14074Y18498D01*
G01X14178Y18394D01*
G01X14282Y18394D01*
G01X14386Y18445D01*
G01X14437Y18498D01*
G01X14490Y18602D01*
G01X14594Y18912D01*
G01X14645Y19016D01*
G01X14696Y19070D01*
G01X14800Y19121D01*
G01X14958Y19121D01*
G01X15062Y19016D01*
G01X15113Y18862D01*
G01X15113Y18653D01*
G01X15062Y18498D01*
G01X14958Y18394D01*
G01X7620Y28806D02*
G01X7620Y27716D01*
G01X7620Y28806D02*
G01X8087Y28806D01*
G01X8242Y28755D01*
G01X8295Y28704D01*
G01X8346Y28600D01*
G01X8346Y28496D01*
G01X8295Y28392D01*
G01X8242Y28338D01*
G01X8087Y28287D01*
G01X7620Y28287D01*
G01X7983Y28287D02*
G01X8346Y27716D01*
G01X9105Y28806D02*
G01X8689Y27716D01*
G01X9105Y28806D02*
G01X9522Y27716D01*
G01X8846Y28079D02*
G01X9364Y28079D01*
G01X9865Y28806D02*
G01X9865Y27716D01*
G01X9865Y28806D02*
G01X10228Y28806D01*
G01X10383Y28755D01*
G01X10487Y28651D01*
G01X10541Y28547D01*
G01X10591Y28392D01*
G01X10591Y28133D01*
G01X10541Y27975D01*
G01X10487Y27871D01*
G01X10383Y27767D01*
G01X10228Y27716D01*
G01X9865Y27716D01*
G01X21971Y3837D02*
G01X21971Y2744D01*
G01X22313Y3837D02*
G01X22313Y2744D01*
G01X22313Y3837D02*
G01X23040Y2744D01*
G01X23040Y3837D02*
G01X23040Y2744D01*
G01X24163Y3575D02*
G01X24112Y3679D01*
G01X24008Y3783D01*
G01X23903Y3837D01*
G01X23695Y3837D01*
G01X23591Y3783D01*
G01X23487Y3679D01*
G01X23436Y3575D01*
G01X23383Y3420D01*
G01X23383Y3161D01*
G01X23436Y3003D01*
G01X23487Y2899D01*
G01X23591Y2798D01*
G01X23695Y2744D01*
G01X23903Y2744D01*
G01X24008Y2798D01*
G01X24112Y2899D01*
G01X24163Y3003D01*
G01X25234Y3679D02*
G01X25130Y3783D01*
G01X24973Y3837D01*
G01X24765Y3837D01*
G01X24610Y3783D01*
G01X24505Y3679D01*
G01X24505Y3575D01*
G01X24559Y3471D01*
G01X24610Y3420D01*
G01X24714Y3369D01*
G01X25026Y3265D01*
G01X25130Y3212D01*
G01X25181Y3161D01*
G01X25234Y3057D01*
G01X25234Y2899D01*
G01X25130Y2798D01*
G01X24973Y2744D01*
G01X24765Y2744D01*
G01X24610Y2798D01*
G01X24505Y2899D01*
G54D10*
G75*
G01X20701Y5842D02*
G03X20701Y5842I-1270J0D01*
G01*
G75*
G01X25781Y5842D02*
G03X25781Y5842I-1270J0D01*
G01*
G75*
G01X19812Y9652D02*
G03X19812Y9652I-381J0D01*
G01*
G75*
G01X24892Y9652D02*
G03X24892Y9652I-381J0D01*
G01*
M00*
M02*
